<?xml version="1.0" encoding="UTF-8"?>
<svg id="Layer_1" data-name="Layer 1" xmlns="http://www.w3.org/2000/svg" viewBox="0 0 156.33 156.33">
  <defs>
    <style>
      .cls-1 {
        fill: #fffcf8;
      }

      .cls-2 {
        fill: #100f0f;
      }

      .cls-3 {
        fill: #ff7932;
      }
    </style>
  </defs>
  <rect class="cls-3" width="156.33" height="156.33" rx="25.86" ry="25.86"/>
  <path class="cls-2" d="M57.66,69.89c0-8.01,0-14.71-.22-18.18-.11-2.6-.43-3.14-6.92-5.19l.97-2.92c1.19-.11,3.46-.11,7.03-.32s11.79-.76,16.34-.76,10.39.32,16.12,2.6c3.68,1.51,9.09,5.84,9.09,12.44,0,4.87-1.41,8.76-5.52,11.9-2.6,1.95-4.76,2.81-5.63,3.35-.54.32-.32,1.08.32,1.3,7.68,1.41,16.55,7.57,16.55,18.83,0,9.84-6.82,15.9-15.79,19.15-4.33,1.51-9.85,1.62-11.68,1.62s-12.77-.43-17.31-.43-8.33.54-9.52.54c-.32,0-.97-2.49-.87-2.7.54-.54,2.49-1.3,3.35-1.84,2.92-1.41,3.14-2.06,3.25-5.95.32-8.01.43-12.87.43-16.77v-16.66ZM95.42,93.26c0-4.54-1.3-8.98-5.19-12.66-3.89-3.68-8.66-4.11-13.85-4.11-3.89,0-7.57.22-8.76,1.51-.43.54-.97,1.51-.97,6.49-.11,20.01,0,20.56,2.27,22.83,2.49,2.38,3.46,2.38,7.14,2.38,10.6,0,19.37-5.08,19.37-16.44ZM85.79,49.98c-2.38-2.27-5.63-3.89-11.14-3.89-.87,0-3.35.22-5.41.87-1.19.22-1.41.43-1.52,1.41-.22.87-.54,3.46-.54,9.41,0,5.41.11,10.49.22,12.01.22,2.49.76,2.7,3.57,3.03,1.73.22,4.22.22,5.84.22,1.41,0,5.3-.32,7.36-1.41,3.68-2.27,5.95-6.82,5.95-11.79,0-4.54-1.84-7.57-4.33-9.85Z"/>
  <path class="cls-1" d="M124.77,129.36c-9.84.65-17.11-.35-30.9-.01-10.35.31-30.16.09-44.76.09-6.32.15-11.45.39-17.55-.02-1.66-.31-1.74,1.24-1.73,1.48.03.71-.03,1.02.73,1.12.45.11.6.55,1.07.57,4.91.19,10.1.24,17.48.26,15.12,0,32.03.36,43.29-.17,1.65-.07,3.45.12,5.7.12,12.67,0,19.9,0,26.61-.26.47-.02.62-.46,1.07-.57.75-.1.7-.4.73-1.12.01-.24-.07-1.79-1.73-1.48Z"/>
  <path class="cls-1" d="M124.77,23.47c-9.81.65-17.11-.35-30.9-.01-10.35.31-30.16.09-44.76.09-6.32.15-11.45.39-17.55-.02-1.66-.31-1.74,1.24-1.73,1.48.03.71-.03,1.02.73,1.12.45.11.6.55,1.07.57,4.91.19,10.1.24,17.48.26,15.12,0,32.03.36,43.29-.17,1.65-.07,3.45.12,5.7.12,12.67,0,19.9,0,26.61-.26.47-.02.62-.46,1.07-.57.75-.1.7-.4.73-1.12.01-.24-.07-1.79-1.73-1.48Z"/>
</svg>